<svg xmlns="http://www.w3.org/2000/svg" height="40" viewBox="0 -960 960 960" width="40"><path d="M368.82-313.437 480-425.693l111.846 112.256 37.691-38.101-111.179-112.257 111.179-112.513-37.691-38.101L480-502.153 368.82-614.409l-38.357 38.101 111.846 112.513-111.846 112.257 38.357 38.101Zm-85.845 173.436q-25.788 0-44.176-18.388-18.387-18.388-18.387-44.176v-532.05h-40.411v-50.255h174.05v-30.513h251.898v30.513h174.05v50.255h-40.411v532.05q0 25.788-18.387 44.176-18.388 18.388-44.176 18.388h-394.05Zm406.358-594.614H270.667v532.05q0 4.616 3.846 8.462 3.846 3.847 8.462 3.847h394.05q4.616 0 8.462-3.847 3.846-3.846 3.846-8.462v-532.05Zm-418.666 0V-190.256-734.615Z"/></svg>