<svg xmlns="http://www.w3.org/2000/svg" height="40" viewBox="0 -960 960 960" width="40"><path d="M454.873-343.181h50.254v-191.385l81.847 84.001 35.794-35.794L480-629.537 337.232-486.359l35.794 35.794 81.847-84.001v191.385Zm-171.898 203.18q-25.788 0-44.176-18.388-18.387-18.388-18.387-44.176v-532.05h-40.411v-50.255h174.05v-30.513h251.898v30.513h174.05v50.255h-40.411v532.05q0 25.788-18.387 44.176-18.388 18.388-44.176 18.388h-394.05Zm406.358-594.614H270.667v532.05q0 4.616 3.846 8.462 3.846 3.847 8.462 3.847h394.05q4.616 0 8.462-3.847 3.846-3.846 3.846-8.462v-532.05Zm-418.666 0V-190.256-734.615Z"/></svg>